<svg aria-hidden="true" style="position: absolute; width: 0; height: 0; overflow: hidden;" version="1.1" xmlns="http://www.w3.org/2000/svg" xmlns:xlink="http://www.w3.org/1999/xlink">
<defs>
<symbol id="arrow-circle-icon" viewBox="0 0 32 32">
<path fill="none"  stroke-linejoin="round" stroke-linecap="round" stroke-miterlimit="4" stroke-width="2.6" d="M4.45 9.334c2.348-4.014 6.638-6.667 11.548-6.667 7.364 0 13.334 5.97 13.334 13.334s-5.97 13.334-13.334 13.334c-4.909 0-9.199-2.653-11.514-6.604l-0.034-0.063"></path>
<path fill="none"  stroke-linejoin="round" stroke-linecap="round" stroke-miterlimit="4" stroke-width="2.6" d="M16 21.334l5.334-5.334-5.334-5.334M2.666 16h18.668"></path>
</symbol>
<symbol id="bell-icon" viewBox="0 0 32 32">
<path fill="none"  stroke-linejoin="round" stroke-linecap="round" stroke-miterlimit="4" stroke-width="3" d="M12.472 28c0.94 0.83 2.176 1.334 3.528 1.334s2.588-0.504 3.528-1.334M24 10.666c0-4.418-3.582-8-8-8s-8 3.582-8 8v0c0 4.12-1.040 6.942-2.2 8.808-0.98 1.574-1.47 2.36-1.452 2.58 0.020 0.244 0.072 0.336 0.268 0.48 0.176 0.132 0.974 0.132 2.57 0.132h17.628c1.596 0 2.394 0 2.57-0.13 0.196-0.146 0.248-0.24 0.268-0.48 0.018-0.22-0.472-1.008-1.452-2.582-1.16-1.866-2.2-4.686-2.2-8.808z"></path>
</symbol>
<symbol id="chevron-down-icon" viewBox="0 0 32 32">
<path fill="none"  stroke-linejoin="round" stroke-linecap="round" stroke-miterlimit="4" stroke-width="3.3684" d="M8.421 12.211l7.579 7.579 7.579-7.579"></path>
</symbol>
<symbol id="close-icon" viewBox="0 0 32 32">
<path fill="none"  stroke-linejoin="round" stroke-linecap="round" stroke-miterlimit="4" stroke-width="2.6667" d="M24 8l-16 16M8 8l16 16"></path>
</symbol>
<symbol id="eye-icon" viewBox="0 0 32 32">
<path fill="none"  stroke-linejoin="round" stroke-linecap="round" stroke-miterlimit="4" stroke-width="2.3111" d="M1.333 16s5.333-10.667 14.667-10.667 14.667 10.667 14.667 10.667-5.333 10.667-14.667 10.667-14.667-10.667-14.667-10.667z"></path>
<path fill="none"  stroke-linejoin="round" stroke-linecap="round" stroke-miterlimit="4" stroke-width="2.3111" d="M16 20c2.209 0 4-1.791 4-4s-1.791-4-4-4v0c-2.209 0-4 1.791-4 4s1.791 4 4 4v0z"></path>
</symbol>
<symbol id="filter-icon" viewBox="0 0 32 32">
<path fill="none"  stroke-linejoin="round" stroke-linecap="round" stroke-miterlimit="4" stroke-width="3" d="M29.334 4h-26.668l10.668 12.614v8.72l5.332 2.666v-11.386l10.668-12.614z"></path>
</symbol>
<symbol id="help-circle-icon" viewBox="0 0 32 32">
<path fill="none"  stroke-linejoin="round" stroke-linecap="round" stroke-miterlimit="4" stroke-width="2.88" d="M16 29.333c7.364 0 13.333-5.969 13.333-13.333s-5.969-13.333-13.333-13.333v0c-7.364 0-13.333 5.969-13.333 13.333s5.969 13.333 13.333 13.333v0z"></path>
<path fill="none"  stroke-linejoin="round" stroke-linecap="round" stroke-miterlimit="4" stroke-width="2.88" d="M12.12 12c0.564-1.569 2.040-2.671 3.773-2.671 2.209 0 4 1.791 4 4 0 0.001 0 0.003 0 0.004v-0c0 2.667-4 4-4 4M16 22.667h0.019"></path>
</symbol>
<symbol id="login-icon" viewBox="0 0 32 32">
<path fill="none"  stroke-linejoin="round" stroke-linecap="round" stroke-miterlimit="4" stroke-width="1.5" d="M11.867 10.080c0.413-4.8 2.88-6.76 8.28-6.76h0.173c5.96 0 8.347 2.387 8.347 8.347v8.693c0 5.96-2.387 8.347-8.347 8.347h-0.173c-5.36 0-7.827-1.934-8.267-6.654M2.667 16h17.173"></path>
<path fill="none" stroke-linejoin="round" stroke-linecap="round" stroke-miterlimit="4" stroke-width="1.5" d="M16.867 11.533l4.466 4.467-4.466 4.467"></path>
</symbol>
<symbol id="logo-icon" viewBox="0 0 32 32">
<path  d="M26.667 0h-21.333c-2.946 0-5.333 2.388-5.333 5.333v0 21.333c0 2.946 2.388 5.333 5.333 5.333v0h21.333c2.946 0 5.333-2.388 5.333-5.333v0-21.333c0-2.946-2.388-5.333-5.333-5.333v0z"></path>
<path  d="M13.331 23.027c0.245-1.271 0.453-2.61 0.747-3.949 0.145-0.7-0.031-0.999-0.815-0.946s-1.657 0.027-2.489 0c-0.833-0.027-0.983-0.446-0.503-1.044 2.363-2.918 4.753-5.8 7.134-8.673 0.267-0.326 0.575-0.557 1.013-0.312 0.44 0.245 0.349 0.549 0.277 0.915-0.263 1.338-0.48 2.677-0.769 3.989-0.149 0.678 0.045 0.919 0.751 0.892 0.318-0.017 0.69-0.027 1.064-0.027s0.746 0.010 1.115 0.029l-0.052-0.002c0.403 0 0.933-0.209 1.141 0.339s-0.231 0.781-0.453 1.107c-1.327 1.642-2.227 2.729-3.135 3.81l0.383-0.468c0.598-0.771-0.727 0.808-2.049 2.39l-2.003 2.464c-0.263 0.317-0.557 0.571-1.005 0.411s-0.353-0.54-0.353-0.924z"></path>
</symbol>
<symbol id="menu-icon" viewBox="0 0 32 32">
<path fill="none"  stroke-linejoin="round" stroke-linecap="round" stroke-miterlimit="4" stroke-width="2.5" d="M4 16h24M4 8h24M4 24h24"></path>
</symbol>
<symbol id="pencil-icon" viewBox="0 0 32 32">
<path fill="none"  stroke-linejoin="round" stroke-linecap="round" stroke-miterlimit="4" stroke-width="2.6" d="M3.334 28.666l7.4-2.844c0.472-0.182 0.708-0.274 0.93-0.392 0.196-0.106 0.384-0.228 0.56-0.366 0.2-0.154 0.378-0.332 0.736-0.69l15.040-15.040c0.703-0.686 1.138-1.642 1.138-2.7 0-2.083-1.689-3.772-3.772-3.772-1.058 0-2.014 0.436-2.699 1.137l-15.041 15.041c-0.358 0.36-0.536 0.538-0.69 0.736-0.138 0.176-0.26 0.364-0.366 0.56-0.118 0.22-0.208 0.46-0.39 0.932l-2.846 7.4zM3.334 28.666l2.744-7.134c0.196-0.51 0.294-0.766 0.462-0.882 0.106-0.075 0.238-0.12 0.381-0.12 0.044 0 0.087 0.004 0.129 0.012l-0.004-0.001c0.2 0.040 0.394 0.232 0.78 0.62l3.014 3.010c0.386 0.388 0.58 0.58 0.618 0.782 0.008 0.038 0.012 0.081 0.012 0.125 0 0.143-0.045 0.275-0.121 0.383l0.001-0.002c-0.116 0.168-0.372 0.266-0.882 0.462l-7.134 2.744z"></path>
</symbol>
<symbol id="plus-icon" viewBox="0 0 32 32">
<path stroke-linejoin="round" stroke-linecap="round" stroke-miterlimit="4" stroke-width="2.2857" d="M16 6.667v18.665M6.667 16h18.665"></path>
</symbol>
<symbol id="trash-icon" viewBox="0 0 32 32">
<path fill="none" stroke-linejoin="round" stroke-linecap="round" stroke-miterlimit="4" stroke-width="2.6" d="M12 4h8M4 8h24M6.666 8l0.8 12.018c0.15 2.23 0.224 3.346 0.59 4.242 0.673 1.626 1.993 2.868 3.63 3.424l0.042 0.012c0.918 0.304 2.036 0.304 4.272 0.304v0c2.236 0 3.354 0 4.272-0.304 1.679-0.568 2.999-1.81 3.657-3.396l0.015-0.040c0.366-0.896 0.44-2.012 0.588-4.242l0.8-12.018"></path>
</symbol>
</defs>
</svg>
